<svg width="22" height="18" viewBox="0 0 22 18" fill="none" xmlns="http://www.w3.org/2000/svg">
<path d="M7 0L7.81027 2.18973L10 3L7.81027 3.81027L7 6L6.18973 3.81027L4 3L6.18973 2.18973L7 0Z" fill="#FFFF"/>
<path d="M2 5L2.54018 6.45982L4 7L2.54018 7.54018L2 9L1.45982 7.54018L0 7L1.45982 6.45982L2 5Z" fill="#FFFF"/>
<path d="M13 3L13.5402 4.45982L15 5L13.5402 5.54018L13 7L12.4598 5.54018L11 5L12.4598 4.45982L13 3Z" fill="#FFFF"/>
<path fill-rule="evenodd" clip-rule="evenodd" d="M21.881 5.3238L13.0107 15.7593L8.52243 10.7723L2.89043 17.8123L2.10956 17.1876L8.47756 9.22762L12.9892 14.2406L21.119 4.67615L21.881 5.3238Z" fill="#FFFF"/>
</svg>
